<svg width="80" height="80" viewBox="0 0 80 80" fill="none" xmlns="http://www.w3.org/2000/svg">
<path d="M36.6667 50H43.3334C45.1015 50 46.7972 49.2976 48.0475 48.0473C49.2977 46.7971 50.0001 45.1014 50.0001 43.3333C50.0001 41.5652 49.2977 39.8695 48.0475 38.6193C46.7972 37.369 45.1015 36.6666 43.3334 36.6666H33.3334C31.3334 36.6666 29.6668 37.3333 28.6668 38.6666L10.0001 56.6666M23.3334 70L28.6668 65.3333C29.6668 64 31.3334 63.3333 33.3334 63.3333H46.6667C50.3334 63.3333 53.6667 62 56.0001 59.3333L71.3334 44.6666C72.6197 43.4511 73.3704 41.7743 73.4205 40.0052C73.4705 38.2361 72.8157 36.5196 71.6001 35.2333C70.3845 33.947 68.7077 33.1963 66.9386 33.1463C65.1696 33.0962 63.453 33.7511 62.1667 34.9666L48.1667 47.9666M6.66675 53.3333L26.6667 73.3333M63.0001 30C63.0001 35.3387 58.6722 39.6666 53.3334 39.6666C47.9947 39.6666 43.6668 35.3387 43.6668 30C43.6668 24.6612 47.9947 20.3333 53.3334 20.3333C58.6722 20.3333 63.0001 24.6612 63.0001 30ZM30.0001 16.6666C30.0001 22.1895 25.5229 26.6666 20.0001 26.6666C14.4772 26.6666 10.0001 22.1895 10.0001 16.6666C10.0001 11.1438 14.4772 6.66663 20.0001 6.66663C25.5229 6.66663 30.0001 11.1438 30.0001 16.6666Z" stroke="black" stroke-width="4" stroke-linecap="round" stroke-linejoin="round"/>
</svg>
