<svg width="80" height="80" viewBox="0 0 80 80" fill="none" xmlns="http://www.w3.org/2000/svg">
<path d="M29.9999 40L36.6666 46.6667L49.9999 33.3333M66.6666 43.3333C66.6666 60 54.9999 68.3333 41.1333 73.1667C40.4071 73.4127 39.6184 73.4009 38.8999 73.1333C24.9999 68.3333 13.3333 60 13.3333 43.3333V20C13.3333 19.1159 13.6844 18.2681 14.3096 17.643C14.9347 17.0178 15.7825 16.6667 16.6666 16.6667C23.3333 16.6667 31.6666 12.6667 37.4666 7.59999C38.1728 6.99666 39.0711 6.66516 39.9999 6.66516C40.9287 6.66516 41.8271 6.99666 42.5333 7.59999C48.3666 12.7 56.6666 16.6667 63.3333 16.6667C64.2173 16.6667 65.0652 17.0178 65.6903 17.643C66.3154 18.2681 66.6666 19.1159 66.6666 20V43.3333Z" stroke="black" stroke-width="4" stroke-linecap="round" stroke-linejoin="round"/>
</svg>
