<svg width="40" height="40" viewBox="0 0 40 40" fill="none" xmlns="http://www.w3.org/2000/svg">
<path d="M19.2083 3.82499C19.2814 3.67742 19.3942 3.55321 19.5341 3.46636C19.674 3.37952 19.8353 3.3335 20 3.3335C20.1646 3.3335 20.326 3.37952 20.4659 3.46636C20.6058 3.55321 20.7186 3.67742 20.7917 3.82499L24.6417 11.6233C24.8953 12.1366 25.2697 12.5807 25.7327 12.9174C26.1957 13.2541 26.7335 13.4735 27.3 13.5567L35.91 14.8167C36.0731 14.8403 36.2264 14.9091 36.3525 15.0153C36.4785 15.1215 36.5724 15.2609 36.6234 15.4177C36.6743 15.5744 36.6804 15.7423 36.641 15.9024C36.6015 16.0624 36.518 16.2082 36.4 16.3233L30.1733 22.3867C29.7627 22.7868 29.4554 23.2808 29.278 23.826C29.1007 24.3713 29.0584 24.9515 29.155 25.5167L30.625 34.0833C30.6538 34.2464 30.6362 34.4143 30.5742 34.5678C30.5121 34.7213 30.4082 34.8543 30.2742 34.9516C30.1403 35.049 29.9816 35.1067 29.8164 35.1181C29.6512 35.1296 29.4862 35.0945 29.34 35.0167L21.6433 30.97C21.1362 30.7037 20.572 30.5646 19.9992 30.5646C19.4264 30.5646 18.8621 30.7037 18.355 30.97L10.66 35.0167C10.5139 35.094 10.349 35.1288 10.1841 35.1171C10.0192 35.1054 9.86085 35.0476 9.72715 34.9503C9.59344 34.8531 9.48971 34.7203 9.42775 34.567C9.36579 34.4137 9.34809 34.2462 9.37666 34.0833L10.845 25.5183C10.942 24.9529 10.9 24.3723 10.7226 23.8267C10.5451 23.2811 10.2377 22.7869 9.82666 22.3867L3.59999 16.325C3.48098 16.21 3.39664 16.064 3.35659 15.9034C3.31654 15.7429 3.32238 15.5743 3.37345 15.417C3.42452 15.2596 3.51877 15.1197 3.64545 15.0133C3.77213 14.9069 3.92616 14.8381 4.08999 14.815L12.6983 13.5567C13.2654 13.4742 13.804 13.2551 14.2676 12.9183C14.7313 12.5815 15.1062 12.1371 15.36 11.6233L19.2083 3.82499Z" stroke="#030115" stroke-width="2" stroke-linecap="round" stroke-linejoin="round"/>
</svg>
