<svg width="80" height="80" viewBox="0 0 80 80" fill="none" xmlns="http://www.w3.org/2000/svg">
<path d="M46.6667 60V20C46.6667 18.2319 45.9644 16.5362 44.7141 15.286C43.4639 14.0358 41.7682 13.3334 40.0001 13.3334H13.3334C11.5653 13.3334 9.86961 14.0358 8.61937 15.286C7.36913 16.5362 6.66675 18.2319 6.66675 20V56.6667C6.66675 57.5508 7.01794 58.3986 7.64306 59.0237C8.26818 59.6489 9.11603 60 10.0001 60H16.6667M16.6667 60C16.6667 63.6819 19.6515 66.6667 23.3334 66.6667C27.0153 66.6667 30.0001 63.6819 30.0001 60M16.6667 60C16.6667 56.3181 19.6515 53.3334 23.3334 53.3334C27.0153 53.3334 30.0001 56.3181 30.0001 60M50.0001 60H30.0001M50.0001 60C50.0001 63.6819 52.9849 66.6667 56.6668 66.6667C60.3486 66.6667 63.3334 63.6819 63.3334 60M50.0001 60C50.0001 56.3181 52.9849 53.3334 56.6668 53.3334C60.3486 53.3334 63.3334 56.3181 63.3334 60M63.3334 60H70.0001C70.8841 60 71.732 59.6489 72.3571 59.0237C72.9822 58.3986 73.3334 57.5508 73.3334 56.6667V44.5C73.3321 43.7436 73.0735 43.0101 72.6001 42.42L61.0001 27.92C60.6883 27.5296 60.2928 27.2143 59.8428 26.9974C59.3927 26.7804 58.8997 26.6674 58.4001 26.6667H46.6667" stroke="#030115" stroke-width="4" stroke-linecap="round" stroke-linejoin="round"/>
</svg>
