<svg width="80" height="80" viewBox="0 0 80 80" fill="none" xmlns="http://www.w3.org/2000/svg">
<path d="M20.0001 60H60.0001M20.0001 46.6666H60.0001M73.3334 27.8333V66.6666C73.3334 68.4347 72.631 70.1304 71.3808 71.3807C70.1306 72.6309 68.4349 73.3333 66.6668 73.3333H13.3334C11.5653 73.3333 9.86961 72.6309 8.61937 71.3807C7.36913 70.1304 6.66675 68.4347 6.66675 66.6666V27.8333C6.67211 26.5038 7.07488 25.2063 7.82329 24.1074C8.5717 23.0085 9.63158 22.1586 10.8667 21.6666L37.5334 11C39.1174 10.3691 40.8828 10.3691 42.4667 11L69.1334 21.6666C70.3686 22.1586 71.4285 23.0085 72.1769 24.1074C72.9253 25.2063 73.3281 26.5038 73.3334 27.8333ZM20.0001 33.3333H60.0001V73.3333H20.0001V33.3333Z" stroke="black" stroke-width="4" stroke-linecap="round" stroke-linejoin="round"/>
</svg>
